<svg width="269" height="183" viewBox="0 0 269 183" fill="none" xmlns="http://www.w3.org/2000/svg">
<g filter="url(#filter0_d_4_42)">
<g clip-path="url(#clip0_4_42)">
<mask id="path-1-inside-1_4_42" fill="white">
<path d="M8 12.06H244.015V162.06H8V12.06Z"/>
</mask>
<path d="M8 12.06H244.015V162.06H8V12.06Z" fill="white"/>
<g clip-path="url(#clip1_4_42)">
<g clip-path="url(#clip2_4_42)">
<path fill-rule="evenodd" clip-rule="evenodd" d="M58.1859 30.0366V41.7351H62.4489V43.7529H55.9163V30.0366H58.1859ZM70.461 35.856V34.6223H72.6118V43.7529H70.4605V42.5181C70.1714 42.9754 69.76 43.3349 69.2267 43.5959C68.6945 43.8569 68.1582 43.9874 67.6188 43.9874C66.9214 43.9874 66.2831 43.86 65.7045 43.6056C65.1412 43.362 64.634 43.0052 64.2144 42.5574C63.7995 42.1128 63.4717 41.5944 63.2478 41.029C63.0151 40.443 62.8978 39.8176 62.9021 39.1871C62.9021 38.5473 63.0173 37.9365 63.2478 37.3549C63.4702 36.786 63.7982 36.2643 64.2144 35.8173C64.634 35.3694 65.1412 35.0124 65.7045 34.7686C66.2831 34.5137 66.9214 34.3863 67.6188 34.3863C68.1582 34.3863 68.6945 34.5173 69.2273 34.7788C69.76 35.0398 70.1714 35.3992 70.461 35.856ZM70.2632 40.3041C70.3956 39.9468 70.4626 39.5686 70.461 39.1876C70.461 38.7951 70.3947 38.4229 70.2632 38.0701C70.1396 37.7308 69.9522 37.4182 69.7111 37.1494C69.4697 36.885 69.1778 36.6718 68.8526 36.5223C68.5166 36.3658 68.1449 36.2873 67.7371 36.2873C67.3293 36.2873 66.9607 36.3658 66.6318 36.5223C66.303 36.6794 66.0201 36.8884 65.7835 37.1494C65.543 37.4169 65.3585 37.73 65.2411 38.0701C65.1148 38.4289 65.0514 38.8067 65.0535 39.1871C65.0535 39.5791 65.1157 39.9518 65.2411 40.3036C65.3584 40.6439 65.5428 40.9571 65.7835 41.2248C66.0223 41.4876 66.3106 41.7007 66.6318 41.8518C66.9607 42.0089 67.3293 42.0869 67.7371 42.0869C68.1449 42.0869 68.5171 42.0089 68.8526 41.8523C69.1779 41.703 69.4699 41.4898 69.7111 41.2253C69.9523 40.9563 70.1397 40.6436 70.2632 40.3041ZM74.309 43.7524V34.6218H80.1508V36.7232H76.4598V43.7524H74.309ZM87.9462 35.856V34.6223H90.0971V43.7529H87.9457V42.5181C87.6562 42.9754 87.2453 43.3349 86.712 43.5959C86.1798 43.8569 85.6435 43.9874 85.1041 43.9874C84.4062 43.9874 83.7684 43.86 83.1898 43.6056C82.6265 43.362 82.1192 43.0052 81.6996 42.5574C81.2848 42.1128 80.9569 41.5944 80.733 41.029C80.5004 40.443 80.383 39.8176 80.3874 39.1871C80.3874 38.5473 80.5021 37.9365 80.733 37.3549C80.9555 36.786 81.2834 36.2643 81.6996 35.8173C82.1193 35.3694 82.6265 35.0124 83.1898 34.7686C83.7684 34.5137 84.4062 34.3863 85.1041 34.3863C85.6435 34.3863 86.1798 34.5173 86.7125 34.7788C87.2453 35.0398 87.6562 35.3992 87.9462 35.856ZM87.7484 40.3041C87.8807 39.9468 87.9475 39.5686 87.9457 39.1876C87.9457 38.7951 87.8795 38.4229 87.7484 38.0701C87.6247 37.7307 87.4371 37.4182 87.1958 37.1494C86.9545 36.885 86.6626 36.6718 86.3373 36.5223C86.0018 36.3658 85.6302 36.2873 85.2224 36.2873C84.8145 36.2873 84.4459 36.3658 84.1171 36.5223C83.7883 36.6794 83.5053 36.8884 83.2688 37.1494C83.028 37.4169 82.8434 37.73 82.7258 38.0701C82.5996 38.4289 82.5361 38.8067 82.5382 39.1871C82.5382 39.5791 82.6004 39.9518 82.7258 40.3036C82.8433 40.6439 83.0279 40.9572 83.2688 41.2248C83.5075 41.4876 83.7958 41.7007 84.1171 41.8518C84.4459 42.0089 84.8145 42.0869 85.2224 42.0869C85.6302 42.0869 86.0024 42.0089 86.3373 41.8523C86.6626 41.703 86.9546 41.4898 87.1958 41.2253C87.4372 40.9564 87.6248 40.6437 87.7484 40.3041ZM98.7209 34.6218H100.9L97.3689 43.7524H94.666L91.1351 34.6218H93.314L96.0175 41.6138L98.7209 34.6218ZM105.591 34.3873C108.52 34.3873 110.518 36.9643 110.143 39.9809H103.006C103.006 40.7685 103.807 42.2913 105.709 42.2913C107.346 42.2913 108.442 40.8623 108.443 40.8613L109.896 41.9778C108.597 43.3552 107.533 43.9879 105.867 43.9879C102.89 43.9879 100.872 42.118 100.872 39.1876C100.872 36.5366 102.957 34.3873 105.591 34.3873ZM103.012 38.3938H108.167C108.151 38.218 107.872 36.0834 105.574 36.0834C103.277 36.0834 103.029 38.218 103.012 38.3938ZM111.544 43.7524V30.0366H113.695V43.7524H111.544ZM49.3699 29.9296C49.3793 29.9641 49.3841 29.9998 49.3842 30.0356V35.6047C49.384 35.6763 49.365 35.7466 49.3289 35.8085C49.2928 35.8704 49.241 35.9216 49.1787 35.957L44.4712 38.6482V43.9823C44.471 44.0538 44.4519 44.1241 44.4158 44.1858C44.3797 44.2476 44.3279 44.2988 44.2657 44.3341L34.4398 49.9516C34.4173 49.9649 34.3924 49.9725 34.3684 49.9812C34.3587 49.9842 34.35 49.9898 34.3409 49.9924C34.272 50.0104 34.1997 50.0104 34.1308 49.9924C34.1196 49.9893 34.1094 49.9832 34.0987 49.9791C34.0758 49.9715 34.0528 49.9638 34.0314 49.9516L24.2049 44.3351C24.1427 44.2996 24.0909 44.2483 24.0549 44.1863C24.0189 44.1244 24 44.054 24 43.9823V27.275C24.0001 27.2392 24.0049 27.2035 24.0143 27.169C24.0173 27.1567 24.0245 27.146 24.0285 27.1348C24.0367 27.1134 24.0438 27.0915 24.0551 27.0716C24.0627 27.0583 24.0739 27.0476 24.0826 27.0359C24.0948 27.0196 24.105 27.0023 24.1193 26.988C24.131 26.9763 24.1463 26.9676 24.1596 26.9574C24.1744 26.9462 24.1876 26.9329 24.2044 26.9232L24.2049 26.9227L29.1184 24.1142C29.1806 24.0789 29.2509 24.0604 29.3224 24.0604C29.3938 24.0604 29.4641 24.0789 29.5263 24.1142L34.4398 26.9227H34.4408C34.4571 26.9329 34.4704 26.9462 34.4856 26.9574C34.4989 26.9676 34.5137 26.9763 34.5254 26.988C34.5397 27.0023 34.5499 27.0196 34.5621 27.0354C34.5713 27.0476 34.5825 27.0583 34.5902 27.0716C34.6014 27.0915 34.6085 27.1134 34.6167 27.1348C34.6207 27.146 34.6274 27.1567 34.6309 27.169C34.6402 27.2036 34.6448 27.2392 34.6447 27.275V37.7102L38.7395 35.3697V30.0356C38.7394 29.9998 38.744 29.9641 38.7532 29.9296C38.7568 29.9173 38.7634 29.9071 38.768 29.8954C38.7756 29.874 38.7828 29.8521 38.794 29.8322C38.8016 29.8189 38.8129 29.8082 38.822 29.7965C38.8343 29.7802 38.8445 29.7629 38.8587 29.7491C38.8705 29.7374 38.8853 29.7287 38.8985 29.7185C38.9138 29.7068 38.9271 29.693 38.9439 29.6838V29.6833L43.8574 26.8748C43.9196 26.8393 43.9899 26.8207 44.0616 26.8207C44.1332 26.8207 44.2035 26.8393 44.2657 26.8748L49.1787 29.6833C49.196 29.6935 49.2098 29.7068 49.2251 29.718C49.2378 29.7282 49.2531 29.7374 49.2649 29.7486C49.2791 29.7629 49.2893 29.7802 49.3011 29.796C49.3102 29.8082 49.3215 29.8189 49.3291 29.8322C49.3408 29.8521 49.3475 29.874 49.3556 29.8954C49.3602 29.9071 49.3668 29.9173 49.3699 29.9296ZM48.5654 35.3697V30.7386L46.8458 31.7215L44.4712 33.0791V37.7102L48.5654 35.3697ZM43.6524 43.7473V39.1132L41.3155 40.4376L34.6447 44.2178V48.8953L43.6524 43.7463V43.7473ZM24.8187 27.978V43.7473L33.826 48.8963V44.2194L29.1205 41.5755L29.1195 41.574L29.1174 41.5735C29.1011 41.5643 29.0884 41.551 29.0736 41.5398C29.0603 41.5296 29.046 41.5215 29.0343 41.5103L29.0333 41.5087C29.02 41.496 29.0109 41.4802 28.9996 41.4659C28.9895 41.4527 28.9772 41.4409 28.9691 41.4267L28.9685 41.4251C28.9594 41.4098 28.9538 41.3915 28.9471 41.3741C28.9405 41.3594 28.9318 41.3451 28.9278 41.3288C28.9222 41.3094 28.9216 41.2885 28.9191 41.2686C28.9176 41.2533 28.913 41.2385 28.913 41.2227V30.318L26.5388 28.9609L24.8187 27.978ZM29.3224 24.9355L25.2302 27.2755L29.3224 29.6145L33.4151 27.275L29.3224 24.9355ZM31.4513 39.5353L33.826 38.1782V27.978L32.1069 28.9609L29.7317 30.3185V40.5182L31.4513 39.5353ZM44.0618 27.6966L39.9691 30.0356L44.0618 32.3751L48.154 30.0356L44.0618 27.6966ZM43.6524 33.0791L41.2773 31.7215L39.5582 30.7386V35.3697L41.9329 36.7273L43.6524 37.7102V33.0791ZM34.2348 43.5148L40.2378 40.1124L43.2385 38.4117L39.1488 36.0737L34.4398 38.7655L30.1482 41.2187L34.2348 43.5148Z" fill="#FF2D20"/>
</g>
<path d="M228.015 42.061V32.0609L219.682 27.06L211.348 32.0609V42.061M228.015 42.0598L219.682 47.0599L211.348 42.0598M219.681 47.06L219.681 37.0594L211.348 32.0589L211.348 42.0595L219.681 47.06ZM219.681 47.06L228.014 42.0594L228.015 32.0588L219.682 37.0594L219.681 47.06ZM211.348 32.0601L219.681 27.06L228.015 32.0601L219.681 37.0601L211.348 32.0601Z" stroke="#FF2D20" stroke-linejoin="bevel"/>
<path d="M25.2656 82.06V70.8569H32.5312V72.685H27.3438V75.6616H32.3828V77.4662H27.3438V82.06H25.2656ZM38.9688 75.9506H38.5312C37.7344 75.9506 37.1406 76.1668 36.75 76.5991C36.3594 77.0314 36.1641 77.6564 36.1641 78.4741V82.06H34.1484V74.0756H36.1016V75.7709C36.2474 75.1616 36.5807 74.7058 37.1016 74.4037C37.6224 74.1017 38.2448 73.9506 38.9688 73.9506V75.9506ZM46.4297 81.6537C45.7526 82.0548 44.9714 82.2553 44.0859 82.2553C43.2005 82.2553 42.4193 82.0548 41.7422 81.6537C41.0651 81.2527 40.5547 80.7397 40.2109 80.1147C39.8724 79.4845 39.7031 78.8048 39.7031 78.0756C39.7031 77.5287 39.8047 77.0053 40.0078 76.5053C40.2109 76.0001 40.4948 75.5522 40.8594 75.1616C41.224 74.7709 41.6849 74.461 42.2422 74.2319C42.8047 73.9975 43.4193 73.8803 44.0859 73.8803C44.7526 73.8803 45.3646 73.9975 45.9219 74.2319C46.4844 74.461 46.9479 74.7709 47.3125 75.1616C47.6771 75.5522 47.9609 76.0001 48.1641 76.5053C48.3672 77.0053 48.4688 77.5287 48.4688 78.0756C48.4688 78.8048 48.2969 79.4845 47.9531 80.1147C47.6146 80.7397 47.1068 81.2527 46.4297 81.6537ZM45.3906 75.9272C45.0208 75.6876 44.5859 75.5678 44.0859 75.5678C43.5859 75.5678 43.1484 75.6876 42.7734 75.9272C42.4036 76.1668 42.1276 76.4741 41.9453 76.8491C41.763 77.2241 41.6719 77.6329 41.6719 78.0756C41.6719 78.7631 41.888 79.3517 42.3203 79.8412C42.7526 80.3308 43.3411 80.5756 44.0859 80.5756C44.8307 80.5756 45.4193 80.3308 45.8516 79.8412C46.2839 79.3517 46.5 78.7631 46.5 78.0756C46.5 77.6329 46.4089 77.2241 46.2266 76.8491C46.0443 76.4741 45.7656 76.1668 45.3906 75.9272ZM52.1953 82.06H50.1797V74.0756H52.1328V75.435C52.3151 74.961 52.6458 74.5834 53.125 74.3022C53.6042 74.0209 54.1589 73.8803 54.7891 73.8803C55.7318 73.8803 56.4661 74.1928 56.9922 74.8178C57.5182 75.4428 57.7812 76.2631 57.7812 77.2787V82.06H55.7656V77.6147C55.7656 77.0157 55.625 76.5392 55.3438 76.185C55.0625 75.8256 54.6328 75.6459 54.0547 75.6459C53.5026 75.6459 53.0547 75.8282 52.7109 76.1928C52.3672 76.5574 52.1953 77.0261 52.1953 77.5991V82.06ZM60.5078 71.6928H62.5234V74.0756H64.5859V75.7397H62.5234V79.3725C62.5234 79.7892 62.6094 80.0939 62.7812 80.2866C62.9583 80.4793 63.2396 80.5756 63.625 80.5756C63.8646 80.5756 64.1589 80.5261 64.5078 80.4272V82.0444C64.3776 82.1017 64.1745 82.1511 63.8984 82.1928C63.6224 82.2345 63.3568 82.2553 63.1016 82.2553C62.1901 82.2553 61.5286 82.0001 61.1172 81.4897C60.7109 80.9793 60.5078 80.2423 60.5078 79.2787V75.7397H59.0234V74.0756H60.5078V71.6928ZM65.8672 76.5209H70.8281V78.3022H65.8672V76.5209ZM74.3281 78.7475C74.3906 79.3725 74.6198 79.8647 75.0156 80.2241C75.4115 80.5834 75.9557 80.7631 76.6484 80.7631C77.1276 80.7631 77.5495 80.672 77.9141 80.4897C78.2786 80.3022 78.5599 80.047 78.7578 79.7241H80.6328C80.3411 80.4584 79.8359 81.0652 79.1172 81.5444C78.4036 82.0183 77.5807 82.2553 76.6484 82.2553C75.3151 82.2553 74.263 81.8621 73.4922 81.0756C72.7266 80.2892 72.3438 79.284 72.3438 78.06C72.3438 76.8517 72.737 75.8543 73.5234 75.0678C74.3099 74.2761 75.3177 73.8803 76.5469 73.8803C77.7865 73.8803 78.7943 74.2735 79.5703 75.06C80.3516 75.8465 80.7422 76.8569 80.7422 78.0912V78.7475H74.3281ZM76.5859 75.3256C75.9557 75.3256 75.4401 75.5131 75.0391 75.8881C74.6432 76.2579 74.401 76.7683 74.3125 77.4194H78.8203C78.7578 76.7892 78.5286 76.284 78.1328 75.9037C77.737 75.5183 77.2214 75.3256 76.5859 75.3256ZM84.4766 82.06H82.4609V74.0756H84.4141V75.435C84.5964 74.961 84.9271 74.5834 85.4062 74.3022C85.8854 74.0209 86.4401 73.8803 87.0703 73.8803C88.013 73.8803 88.7474 74.1928 89.2734 74.8178C89.7995 75.4428 90.0625 76.2631 90.0625 77.2787V82.06H88.0469V77.6147C88.0469 77.0157 87.9062 76.5392 87.625 76.185C87.3438 75.8256 86.9141 75.6459 86.3359 75.6459C85.7839 75.6459 85.3359 75.8282 84.9922 76.1928C84.6484 76.5574 84.4766 77.0261 84.4766 77.5991V82.06ZM98.5625 70.3803H100.578V82.06H98.6484V80.685C98.3932 81.1329 98.0078 81.5079 97.4922 81.81C96.9766 82.1069 96.3906 82.2553 95.7344 82.2553C94.9635 82.2553 94.2682 82.0678 93.6484 81.6928C93.0286 81.3178 92.5495 80.8126 92.2109 80.1772C91.8724 79.5418 91.7031 78.8412 91.7031 78.0756C91.7031 77.31 91.8724 76.6095 92.2109 75.9741C92.5495 75.3334 93.0286 74.8256 93.6484 74.4506C94.2682 74.0704 94.9635 73.8803 95.7344 73.8803C96.4062 73.8803 96.9922 74.0287 97.4922 74.3256C97.9922 74.6225 98.349 74.9975 98.5625 75.4506V70.3803ZM94.3906 76.2787C93.9427 76.7683 93.7188 77.3673 93.7188 78.0756C93.7188 78.784 93.9401 79.3803 94.3828 79.8647C94.8307 80.3491 95.4089 80.5912 96.1172 80.5912C96.8099 80.5912 97.3906 80.3595 97.8594 79.8959C98.3281 79.4324 98.5625 78.8256 98.5625 78.0756C98.5625 77.3256 98.3255 76.7162 97.8516 76.2475C97.3828 75.7787 96.8047 75.5444 96.1172 75.5444C95.4141 75.5444 94.8385 75.7892 94.3906 76.2787Z" fill="#232323"/>
<g clip-path="url(#clip3_4_42)">
<path d="M27.2394 100.412C27.1969 99.1885 28.1467 98.06 29.4305 98.06H42.5857C43.8695 98.06 44.8193 99.1885 44.7768 100.412C44.7361 101.588 44.789 103.111 45.1708 104.352C45.5538 105.598 46.1996 106.385 47.2573 106.486V107.634C46.1996 107.735 45.5538 108.522 45.1708 109.767C44.789 111.009 44.7361 112.532 44.7768 113.708C44.8193 114.931 43.8695 116.06 42.5857 116.06H29.4305C28.1467 116.06 27.1969 114.931 27.2394 113.708C27.2802 112.532 27.2272 111.009 26.8454 109.767C26.4625 108.522 25.8151 107.735 24.7573 107.634V106.486C25.815 106.385 26.4625 105.598 26.8454 104.352C27.2272 103.111 27.2802 101.588 27.2394 100.412Z" fill="url(#paint0_linear_4_42)"/>
<g filter="url(#filter1_d_4_42)">
<path d="M36.4952 111.845C38.5737 111.845 39.8262 110.823 39.8262 109.138C39.8262 107.864 38.9325 106.942 37.6055 106.796V106.743C38.5805 106.584 39.3455 105.675 39.3455 104.66C39.3455 103.213 38.2081 102.271 36.4749 102.271H32.5752V111.845H36.4952ZM34.0917 103.485H36.1093C37.2061 103.485 37.8289 103.976 37.8289 104.865C37.8289 105.814 37.1045 106.345 35.7911 106.345H34.0917V103.485ZM34.0917 110.631V107.479H36.0957C37.531 107.479 38.2758 108.01 38.2758 109.045C38.2758 110.08 37.5514 110.631 36.1838 110.631H34.0917Z" fill="url(#paint1_linear_4_42)"/>
<path d="M36.4952 111.845C38.5737 111.845 39.8262 110.823 39.8262 109.138C39.8262 107.864 38.9325 106.942 37.6055 106.796V106.743C38.5805 106.584 39.3455 105.675 39.3455 104.66C39.3455 103.213 38.2081 102.271 36.4749 102.271H32.5752V111.845H36.4952ZM34.0917 103.485H36.1093C37.2061 103.485 37.8289 103.976 37.8289 104.865C37.8289 105.814 37.1045 106.345 35.7911 106.345H34.0917V103.485ZM34.0917 110.631V107.479H36.0957C37.531 107.479 38.2758 108.01 38.2758 109.045C38.2758 110.08 37.5514 110.631 36.1838 110.631H34.0917Z" stroke="white" stroke-width="0.1"/>
</g>
</g>
<g clip-path="url(#clip4_4_42)">
<path d="M44.6654 138.406C43.828 138.41 43.1003 138.612 42.491 138.91C42.2674 138.467 42.0438 138.073 42.0044 137.783C41.9605 137.446 41.9079 137.24 41.9605 136.836C42.0131 136.433 42.2499 135.859 42.2455 135.815C42.2411 135.771 42.1929 135.565 41.7107 135.561C41.2284 135.556 40.812 135.653 40.7637 135.78C40.7155 135.907 40.6235 136.196 40.5621 136.494C40.4788 136.933 39.5977 138.498 39.0935 139.318C38.9313 138.998 38.791 138.717 38.7603 138.494C38.7165 138.156 38.6639 137.95 38.7165 137.547C38.7691 137.143 39.0058 136.569 39.0015 136.525C38.9971 136.481 38.9488 136.275 38.4666 136.271C37.9844 136.267 37.5679 136.363 37.5197 136.49C37.4715 136.617 37.4189 136.915 37.3181 137.205C37.2172 137.494 36.0467 140.107 35.7399 140.782C35.5821 141.128 35.4462 141.404 35.3497 141.593C35.3497 141.593 35.3453 141.606 35.3322 141.628C35.2489 141.79 35.2007 141.878 35.2007 141.878C35.2007 141.878 35.2007 141.878 35.2007 141.882C35.1349 142.001 35.0648 142.11 35.0297 142.11C35.0034 142.11 34.9552 141.795 35.0385 141.365C35.2138 140.457 35.6303 139.046 35.6259 138.998C35.6259 138.971 35.7048 138.726 35.3541 138.599C35.0122 138.472 34.8894 138.682 34.8587 138.682C34.828 138.682 34.8061 138.757 34.8061 138.757C34.8061 138.757 35.1875 137.17 34.0784 137.17C33.3858 137.17 32.4301 137.928 31.9566 138.612C31.6585 138.774 31.0229 139.12 30.3434 139.493C30.0847 139.638 29.8173 139.782 29.5675 139.918C29.5499 139.901 29.5324 139.879 29.5148 139.861C28.1734 138.428 25.6921 137.415 25.7974 135.491C25.8368 134.789 26.0779 132.948 30.5626 130.712C34.2538 128.893 37.1909 129.397 37.6995 130.515C38.4272 132.111 36.1257 135.074 32.3117 135.504C30.8563 135.666 30.0935 135.105 29.9006 134.894C29.699 134.675 29.6683 134.662 29.5938 134.706C29.471 134.772 29.5499 134.969 29.5938 135.083C29.7077 135.381 30.1768 135.907 30.9703 136.166C31.6717 136.394 33.377 136.521 35.4418 135.723C37.7521 134.829 39.5582 132.343 39.0278 130.261C38.4973 128.148 34.9902 127.451 31.6717 128.63C29.699 129.331 27.5597 130.436 26.0209 131.874C24.1929 133.584 23.9035 135.07 24.0219 135.692C24.4471 137.902 27.4939 139.34 28.7126 140.405C28.6512 140.44 28.5942 140.471 28.546 140.497C27.9367 140.799 25.6132 142.014 25.0346 143.298C24.377 144.754 25.1398 145.797 25.6439 145.937C27.209 146.371 28.8178 145.591 29.6814 144.302C30.545 143.013 30.4398 141.339 30.0409 140.571C30.0365 140.563 30.0321 140.554 30.0234 140.545C30.1812 140.453 30.3434 140.357 30.5012 140.265C30.8125 140.08 31.1193 139.909 31.3824 139.769C31.2333 140.177 31.1237 140.664 31.0711 141.365C31.0053 142.189 31.3429 143.259 31.7857 143.68C31.9829 143.864 32.2153 143.868 32.3643 143.868C32.8816 143.868 33.114 143.438 33.3726 142.93C33.6883 142.307 33.9732 141.584 33.9732 141.584C33.9732 141.584 33.6181 143.539 34.5826 143.539C34.9333 143.539 35.2883 143.083 35.4462 142.851C35.4462 142.855 35.4462 142.855 35.4462 142.855C35.4462 142.855 35.4549 142.842 35.4725 142.812C35.5075 142.755 35.5295 142.72 35.5295 142.72C35.5295 142.72 35.5295 142.715 35.5295 142.711C35.6697 142.465 35.9854 141.909 36.4544 140.984C37.0594 139.791 37.6425 138.301 37.6425 138.301C37.6425 138.301 37.6951 138.664 37.8748 139.269C37.98 139.625 38.1992 140.015 38.3746 140.392C38.2343 140.589 38.1466 140.699 38.1466 140.699C38.1466 140.699 38.1466 140.699 38.151 140.703C38.037 140.852 37.9143 141.014 37.7784 141.172C37.3005 141.742 36.7306 142.395 36.6517 142.584C36.5597 142.807 36.5816 142.969 36.7569 143.101C36.8841 143.197 37.112 143.211 37.3444 143.197C37.774 143.167 38.0765 143.061 38.2255 142.996C38.4579 142.912 38.7297 142.785 38.9839 142.597C39.453 142.25 39.7379 141.755 39.7116 141.102C39.6985 140.742 39.5801 140.383 39.4354 140.045C39.4793 139.984 39.5187 139.923 39.5626 139.861C40.3034 138.778 40.8777 137.59 40.8777 137.59C40.8777 137.59 40.9303 137.954 41.1101 138.559C41.1977 138.866 41.3775 139.199 41.5353 139.524C40.8383 140.089 40.4087 140.747 40.2552 141.176C39.979 141.974 40.1939 142.334 40.6015 142.417C40.7857 142.456 41.0487 142.369 41.2416 142.286C41.4871 142.207 41.7764 142.071 42.0526 141.869C42.5217 141.523 42.9732 141.041 42.9469 140.387C42.9337 140.089 42.8548 139.796 42.7452 139.511C43.3371 139.265 44.0998 139.129 45.0731 139.243C47.1598 139.489 47.5718 140.791 47.4929 141.339C47.414 141.887 46.9756 142.185 46.831 142.277C46.6863 142.369 46.6381 142.399 46.6512 142.465C46.6688 142.562 46.7389 142.557 46.8617 142.54C47.0326 142.509 47.9576 142.097 47.9971 141.089C48.0628 139.8 46.8354 138.393 44.6654 138.406ZM28.5679 143.833C27.8753 144.587 26.9109 144.872 26.4944 144.631C26.0472 144.372 26.2226 143.259 27.0731 142.461C27.5903 141.974 28.2567 141.523 28.6995 141.247C28.8003 141.185 28.9493 141.097 29.1291 140.988C29.1598 140.97 29.1773 140.962 29.1773 140.962C29.2124 140.94 29.2474 140.918 29.2825 140.896C29.5938 142.036 29.2957 143.04 28.5679 143.833ZM33.6093 140.405C33.3682 140.992 32.8641 142.496 32.5572 142.413C32.2942 142.343 32.132 141.203 32.5046 140.076C32.6931 139.511 33.092 138.835 33.3244 138.572C33.7014 138.152 34.1179 138.011 34.2187 138.182C34.3458 138.406 33.7584 140.037 33.6093 140.405ZM37.7696 142.395C37.6688 142.448 37.5723 142.483 37.5285 142.456C37.4978 142.439 37.5723 142.369 37.5723 142.369C37.5723 142.369 38.094 141.808 38.3 141.553C38.4184 141.404 38.5587 141.229 38.7077 141.032C38.7077 141.049 38.7077 141.071 38.7077 141.089C38.7077 141.759 38.0589 142.211 37.7696 142.395ZM40.9786 141.663C40.904 141.61 40.9172 141.435 41.1671 140.887C41.2635 140.672 41.4915 140.313 41.8816 139.966C41.9255 140.107 41.9562 140.243 41.9518 140.37C41.9474 141.216 41.3424 141.531 40.9786 141.663Z" fill="#CD6799"/>
</g>
<path d="M59.6162 103.725C59.6162 104.213 59.4772 104.65 59.1992 105.038C58.9258 105.42 58.584 105.714 58.1738 105.919C58.8483 106.038 59.3906 106.323 59.8008 106.774C60.2109 107.22 60.416 107.754 60.416 108.373C60.416 109.153 60.1198 109.795 59.5273 110.301C58.9349 110.807 58.1578 111.06 57.1963 111.06H53.2724V101.257H56.916C57.7181 101.257 58.3675 101.487 58.8642 101.948C59.3655 102.408 59.6162 103 59.6162 103.725ZM56.9707 110.151C57.7135 110.151 58.2877 109.984 58.6933 109.652C59.1035 109.315 59.3086 108.859 59.3086 108.285C59.3086 107.747 59.1012 107.307 58.6865 106.965C58.2763 106.623 57.7363 106.453 57.0664 106.453H54.3799V110.151H56.9707ZM54.3799 105.557H56.7314C57.2601 105.557 57.6907 105.391 58.0234 105.058C58.3561 104.721 58.5224 104.308 58.5224 103.821C58.5224 103.319 58.347 102.916 57.9961 102.611C57.6497 102.305 57.1871 102.153 56.6084 102.153H54.3799V105.557ZM66.8965 110.93C66.4225 111.131 65.9075 111.231 65.3515 111.231C64.7955 111.231 64.2806 111.131 63.8066 110.93C63.3327 110.73 62.9384 110.463 62.624 110.13C62.3095 109.798 62.0634 109.415 61.8857 108.982C61.7125 108.544 61.6259 108.089 61.6259 107.615C61.6259 106.981 61.7741 106.393 62.0703 105.851C62.3665 105.304 62.8017 104.86 63.3759 104.518C63.9547 104.176 64.6133 104.005 65.3515 104.005C66.0898 104.005 66.7461 104.176 67.3203 104.518C67.8991 104.86 68.3366 105.304 68.6328 105.851C68.929 106.393 69.0771 106.981 69.0771 107.615C69.0771 108.089 68.9883 108.544 68.8105 108.982C68.6373 109.415 68.3935 109.798 68.0791 110.13C67.7646 110.463 67.3704 110.73 66.8965 110.93ZM65.3515 104.914C64.8183 104.914 64.3466 105.044 63.9365 105.304C63.5263 105.559 63.2164 105.89 63.0068 106.295C62.7972 106.701 62.6924 107.141 62.6924 107.615C62.6924 108.089 62.7972 108.528 63.0068 108.934C63.2164 109.34 63.5263 109.672 63.9365 109.932C64.3466 110.187 64.8183 110.315 65.3515 110.315C65.8893 110.315 66.3633 110.187 66.7734 109.932C67.1836 109.672 67.4912 109.34 67.6963 108.934C67.9059 108.528 68.0107 108.089 68.0107 107.615C68.0107 107.141 67.9059 106.701 67.6963 106.295C67.4912 105.89 67.1836 105.559 66.7734 105.304C66.3633 105.044 65.8893 104.914 65.3515 104.914ZM75.6054 110.93C75.1315 111.131 74.6165 111.231 74.0605 111.231C73.5045 111.231 72.9896 111.131 72.5156 110.93C72.0416 110.73 71.6474 110.463 71.333 110.13C71.0185 109.798 70.7724 109.415 70.5947 108.982C70.4215 108.544 70.3349 108.089 70.3349 107.615C70.3349 106.981 70.483 106.393 70.7793 105.851C71.0755 105.304 71.5107 104.86 72.0849 104.518C72.6637 104.176 73.3222 104.005 74.0605 104.005C74.7988 104.005 75.455 104.176 76.0293 104.518C76.608 104.86 77.0455 105.304 77.3418 105.851C77.638 106.393 77.7861 106.981 77.7861 107.615C77.7861 108.089 77.6972 108.544 77.5195 108.982C77.3463 109.415 77.1025 109.798 76.7881 110.13C76.4736 110.463 76.0794 110.73 75.6054 110.93ZM74.0605 104.914C73.5273 104.914 73.0556 105.044 72.6455 105.304C72.2353 105.559 71.9254 105.89 71.7158 106.295C71.5062 106.701 71.4013 107.141 71.4013 107.615C71.4013 108.089 71.5062 108.528 71.7158 108.934C71.9254 109.34 72.2353 109.672 72.6455 109.932C73.0556 110.187 73.5273 110.315 74.0605 110.315C74.5983 110.315 75.0722 110.187 75.4824 109.932C75.8925 109.672 76.2002 109.34 76.4052 108.934C76.6149 108.528 76.7197 108.089 76.7197 107.615C76.7197 107.141 76.6149 106.701 76.4052 106.295C76.2002 105.89 75.8925 105.559 75.4824 105.304C75.0722 105.044 74.5983 104.914 74.0605 104.914ZM80.0693 101.989H81.1631V104.169H83.248V105.085H81.1631V108.934C81.1631 109.417 81.2496 109.766 81.4228 109.98C81.6006 110.194 81.9059 110.301 82.3388 110.301C82.5667 110.301 82.8401 110.26 83.1591 110.178V111.06C82.9085 111.174 82.5553 111.231 82.0996 111.231C81.7031 111.231 81.3704 111.174 81.1015 111.06C80.8327 110.942 80.623 110.764 80.4726 110.527C80.3268 110.29 80.222 110.016 80.1582 109.706C80.0989 109.397 80.0693 109.023 80.0693 108.585V105.085H78.6543V104.169H80.0693V101.989ZM85.2168 109.098C85.2942 109.522 85.4788 109.848 85.7705 110.076C86.0667 110.303 86.4518 110.417 86.9258 110.417C87.3815 110.417 87.7575 110.306 88.0537 110.082C88.3499 109.859 88.498 109.565 88.498 109.201C88.498 108.914 88.4091 108.683 88.2314 108.51C88.0582 108.337 87.7962 108.193 87.4453 108.08L86.3242 107.758C85.1484 107.448 84.5605 106.826 84.5605 105.892C84.5605 105.331 84.7747 104.878 85.2031 104.532C85.6315 104.181 86.1784 104.005 86.8437 104.005C87.5136 104.005 88.0423 104.178 88.4297 104.525C88.8216 104.871 89.0586 105.341 89.1406 105.933H88.1904C88.1539 105.609 88.0218 105.343 87.7939 105.133C87.5661 104.924 87.2493 104.819 86.8437 104.819C86.4472 104.819 86.1351 104.912 85.9072 105.099C85.6839 105.281 85.5722 105.537 85.5722 105.865C85.5722 106.156 85.652 106.371 85.8115 106.507C85.971 106.644 86.2399 106.772 86.6181 106.89L87.8623 107.252C88.4091 107.416 88.8193 107.649 89.0927 107.95C89.3662 108.25 89.5029 108.642 89.5029 109.125C89.5029 109.745 89.2454 110.251 88.7304 110.643C88.22 111.035 87.6139 111.231 86.9121 111.231C86.2011 111.231 85.6041 111.051 85.1211 110.691C84.6425 110.331 84.3532 109.8 84.2529 109.098H85.2168ZM91.6357 101.989H92.7295V104.169H94.8144V105.085H92.7295V108.934C92.7295 109.417 92.8161 109.766 92.9892 109.98C93.167 110.194 93.4723 110.301 93.9052 110.301C94.1331 110.301 94.4065 110.26 94.7256 110.178V111.06C94.4749 111.174 94.1217 111.231 93.666 111.231C93.2695 111.231 92.9368 111.174 92.6679 111.06C92.3991 110.942 92.1894 110.764 92.039 110.527C91.8932 110.29 91.7884 110.016 91.7246 109.706C91.6653 109.397 91.6357 109.023 91.6357 108.585V105.085H90.2207V104.169H91.6357V101.989ZM100.174 105.113H99.8799C99.1279 105.113 98.5332 105.352 98.0957 105.831C97.6627 106.309 97.4463 106.956 97.4463 107.772V111.06H96.3525V104.169H97.3984V105.851C97.5579 105.249 97.8815 104.803 98.3691 104.511C98.8613 104.22 99.4629 104.074 100.174 104.074V105.113ZM108.397 104.169V111.06H107.345V109.672C107.126 110.092 106.752 110.456 106.224 110.766C105.7 111.076 105.112 111.231 104.46 111.231C103.772 111.231 103.154 111.062 102.607 110.725C102.065 110.383 101.65 109.939 101.363 109.392C101.076 108.845 100.933 108.253 100.933 107.615C100.933 106.977 101.076 106.384 101.363 105.837C101.65 105.29 102.065 104.848 102.607 104.511C103.154 104.174 103.772 104.005 104.46 104.005C105.121 104.005 105.713 104.16 106.237 104.47C106.766 104.775 107.131 105.142 107.331 105.571V104.169H108.397ZM102.744 105.687C102.266 106.211 102.026 106.854 102.026 107.615C102.026 108.376 102.266 109.021 102.744 109.549C103.227 110.073 103.861 110.335 104.645 110.335C105.1 110.335 105.526 110.233 105.923 110.028C106.324 109.818 106.654 109.504 106.914 109.084C107.174 108.661 107.304 108.171 107.304 107.615C107.304 107.195 107.228 106.813 107.078 106.466C106.928 106.115 106.725 105.828 106.47 105.605C106.219 105.382 105.936 105.208 105.622 105.085C105.308 104.962 104.982 104.901 104.645 104.901C103.861 104.901 103.227 105.163 102.744 105.687ZM111.733 113.972H110.64V104.169H111.686V105.557C111.904 105.138 112.273 104.775 112.793 104.47C113.317 104.16 113.909 104.005 114.57 104.005C115.258 104.005 115.874 104.174 116.416 104.511C116.963 104.848 117.38 105.29 117.667 105.837C117.954 106.384 118.098 106.977 118.098 107.615C118.098 108.253 117.954 108.845 117.667 109.392C117.38 109.939 116.963 110.383 116.416 110.725C115.874 111.062 115.258 111.231 114.57 111.231C113.9 111.231 113.31 111.078 112.8 110.773C112.294 110.463 111.938 110.092 111.733 109.659V113.972ZM116.286 109.549C116.769 109.021 117.011 108.376 117.011 107.615C117.011 106.854 116.769 106.211 116.286 105.687C115.808 105.163 115.176 104.901 114.393 104.901C114.055 104.901 113.729 104.962 113.415 105.085C113.101 105.208 112.816 105.382 112.561 105.605C112.31 105.828 112.109 106.115 111.959 106.466C111.809 106.813 111.733 107.195 111.733 107.615C111.733 108.171 111.863 108.661 112.123 109.084C112.383 109.504 112.711 109.818 113.107 110.028C113.508 110.233 113.937 110.335 114.393 110.335C115.176 110.335 115.808 110.073 116.286 109.549Z" fill="#232323"/>
<path d="M53.792 138.36C53.9013 138.975 54.1565 139.46 54.5576 139.816C54.9586 140.171 55.4964 140.349 56.1709 140.349C56.8545 140.349 57.3991 140.171 57.8047 139.816C58.2103 139.46 58.4131 139.011 58.4131 138.469C58.4131 137.558 57.8434 136.938 56.7041 136.61L55.4873 136.261C53.8421 135.801 53.0195 134.937 53.0195 133.67C53.0195 132.9 53.3066 132.274 53.8808 131.79C54.4596 131.307 55.1865 131.066 56.0615 131.066C56.9319 131.066 57.6383 131.317 58.1806 131.818C58.7275 132.315 59.0283 132.95 59.083 133.725H58.0644C58.0006 133.196 57.791 132.773 57.4355 132.454C57.0846 132.135 56.622 131.975 56.0478 131.975C55.4554 131.975 54.9814 132.123 54.6259 132.419C54.275 132.716 54.0996 133.123 54.0996 133.643C54.0996 134.108 54.2454 134.463 54.5371 134.709C54.8333 134.951 55.2754 135.154 55.8633 135.318L57.0254 135.673C57.8274 135.901 58.4381 136.232 58.8574 136.664C59.2812 137.097 59.4931 137.676 59.4931 138.401C59.4931 139.239 59.1787 139.925 58.5498 140.458C57.9209 140.992 57.1233 141.258 56.1572 141.258C55.2047 141.258 54.4277 140.996 53.8261 140.472C53.2291 139.948 52.8623 139.244 52.7256 138.36H53.792ZM68.2431 134.169V141.06H67.1904V139.672C66.9716 140.092 66.598 140.456 66.0693 140.766C65.5452 141.076 64.9573 141.231 64.3056 141.231C63.6175 141.231 63 141.062 62.4531 140.725C61.9108 140.383 61.4961 139.939 61.209 139.392C60.9218 138.845 60.7783 138.253 60.7783 137.615C60.7783 136.977 60.9218 136.384 61.209 135.837C61.4961 135.29 61.9108 134.848 62.4531 134.511C63 134.174 63.6175 134.005 64.3056 134.005C64.9664 134.005 65.5589 134.16 66.083 134.47C66.6116 134.775 66.9762 135.142 67.1767 135.571V134.169H68.2431ZM62.5898 135.687C62.1113 136.211 61.872 136.854 61.872 137.615C61.872 138.376 62.1113 139.021 62.5898 139.549C63.0729 140.073 63.7063 140.335 64.4902 140.335C64.9459 140.335 65.372 140.233 65.7685 140.028C66.1696 139.818 66.5 139.504 66.7597 139.084C67.0195 138.661 67.1494 138.171 67.1494 137.615C67.1494 137.195 67.0742 136.813 66.9238 136.466C66.7734 136.115 66.5706 135.828 66.3154 135.605C66.0647 135.382 65.7822 135.208 65.4677 135.085C65.1533 134.962 64.8274 134.901 64.4902 134.901C63.7063 134.901 63.0729 135.163 62.5898 135.687ZM70.916 139.098C70.9935 139.522 71.178 139.848 71.4697 140.076C71.7659 140.303 72.151 140.417 72.625 140.417C73.0807 140.417 73.4567 140.306 73.7529 140.082C74.0491 139.859 74.1972 139.565 74.1972 139.201C74.1972 138.914 74.1084 138.683 73.9306 138.51C73.7575 138.337 73.4954 138.193 73.1445 138.08L72.0234 137.758C70.8476 137.448 70.2597 136.826 70.2597 135.892C70.2597 135.331 70.4739 134.878 70.9023 134.532C71.3307 134.181 71.8776 134.005 72.5429 134.005C73.2129 134.005 73.7415 134.178 74.1289 134.525C74.5208 134.871 74.7578 135.341 74.8398 135.933H73.8896C73.8532 135.609 73.721 135.343 73.4931 135.133C73.2653 134.924 72.9485 134.819 72.5429 134.819C72.1465 134.819 71.8343 134.912 71.6064 135.099C71.3831 135.281 71.2715 135.537 71.2715 135.865C71.2715 136.156 71.3512 136.371 71.5107 136.507C71.6702 136.644 71.9391 136.772 72.3174 136.89L73.5615 137.252C74.1084 137.416 74.5185 137.649 74.792 137.95C75.0654 138.25 75.2021 138.642 75.2021 139.125C75.2021 139.745 74.9446 140.251 74.4297 140.643C73.9192 141.035 73.3131 141.231 72.6113 141.231C71.9004 141.231 71.3034 141.051 70.8203 140.691C70.3418 140.331 70.0524 139.8 69.9521 139.098H70.916ZM77.2871 139.098C77.3646 139.522 77.5491 139.848 77.8408 140.076C78.137 140.303 78.5221 140.417 78.9961 140.417C79.4518 140.417 79.8278 140.306 80.124 140.082C80.4202 139.859 80.5683 139.565 80.5683 139.201C80.5683 138.914 80.4795 138.683 80.3017 138.51C80.1286 138.337 79.8665 138.193 79.5156 138.08L78.3945 137.758C77.2187 137.448 76.6308 136.826 76.6308 135.892C76.6308 135.331 76.845 134.878 77.2734 134.532C77.7018 134.181 78.2487 134.005 78.914 134.005C79.584 134.005 80.1126 134.178 80.5 134.525C80.8919 134.871 81.1289 135.341 81.2109 135.933H80.2607C80.2243 135.609 80.0921 135.343 79.8642 135.133C79.6364 134.924 79.3196 134.819 78.914 134.819C78.5175 134.819 78.2054 134.912 77.9775 135.099C77.7542 135.281 77.6425 135.537 77.6425 135.865C77.6425 136.156 77.7223 136.371 77.8818 136.507C78.0413 136.644 78.3102 136.772 78.6884 136.89L79.9326 137.252C80.4795 137.416 80.8896 137.649 81.1631 137.95C81.4365 138.25 81.5732 138.642 81.5732 139.125C81.5732 139.745 81.3157 140.251 80.8008 140.643C80.2903 141.035 79.6842 141.231 78.9824 141.231C78.2715 141.231 77.6744 141.051 77.1914 140.691C76.7129 140.331 76.4235 139.8 76.3232 139.098H77.2871Z" fill="#232323"/>
<g clip-path="url(#clip5_4_42)">
<path d="M151.257 98.06H136.772C135.802 98.06 135.015 98.847 135.015 99.8178V114.302C135.015 115.273 135.802 116.06 136.772 116.06H151.257C152.228 116.06 153.015 115.273 153.015 114.302V99.8178C153.015 98.847 152.228 98.06 151.257 98.06Z" fill="#3178C6"/>
<path d="M151.257 98.06H136.772C135.802 98.06 135.015 98.847 135.015 99.8178V114.302C135.015 115.273 135.802 116.06 136.772 116.06H151.257C152.228 116.06 153.015 115.273 153.015 114.302V99.8178C153.015 98.847 152.228 98.06 151.257 98.06Z" fill="#3178C6"/>
<path fill-rule="evenodd" clip-rule="evenodd" d="M146.157 112.383V114.143C146.443 114.29 146.781 114.4 147.172 114.473C147.563 114.547 147.975 114.583 148.407 114.583C148.829 114.583 149.23 114.543 149.61 114.462C149.989 114.382 150.322 114.249 150.608 114.064C150.894 113.879 151.121 113.637 151.288 113.338C151.455 113.039 151.538 112.669 151.538 112.23C151.538 111.911 151.49 111.631 151.395 111.391C151.3 111.151 151.162 110.937 150.982 110.75C150.803 110.563 150.587 110.395 150.336 110.247C150.085 110.098 149.801 109.958 149.486 109.826C149.255 109.731 149.047 109.638 148.864 109.548C148.681 109.458 148.525 109.367 148.396 109.273C148.268 109.18 148.169 109.081 148.099 108.976C148.03 108.872 147.995 108.754 147.995 108.622C147.995 108.501 148.026 108.392 148.088 108.294C148.151 108.197 148.239 108.114 148.352 108.044C148.466 107.974 148.605 107.92 148.77 107.882C148.936 107.843 149.119 107.824 149.321 107.824C149.467 107.824 149.622 107.835 149.786 107.857C149.949 107.879 150.113 107.913 150.278 107.959C150.443 108.005 150.604 108.062 150.76 108.132C150.915 108.202 151.059 108.282 151.191 108.374V106.73C150.924 106.627 150.631 106.551 150.314 106.501C149.997 106.452 149.632 106.427 149.222 106.427C148.803 106.427 148.407 106.472 148.033 106.562C147.659 106.652 147.33 106.792 147.046 106.983C146.761 107.173 146.537 107.416 146.372 107.711C146.207 108.007 146.124 108.359 146.124 108.77C146.124 109.294 146.275 109.742 146.578 110.112C146.881 110.482 147.34 110.796 147.956 111.053C148.198 111.152 148.424 111.249 148.633 111.344C148.842 111.439 149.023 111.538 149.175 111.641C149.327 111.744 149.447 111.856 149.535 111.977C149.623 112.098 149.667 112.235 149.667 112.389C149.667 112.503 149.64 112.608 149.585 112.705C149.53 112.802 149.446 112.887 149.334 112.958C149.223 113.03 149.083 113.086 148.916 113.126C148.749 113.166 148.554 113.186 148.33 113.186C147.949 113.186 147.571 113.12 147.197 112.986C146.823 112.852 146.476 112.651 146.157 112.383ZM143.198 108.047H145.456V106.603H139.163V108.047H141.41V114.478H143.198V108.047Z" fill="white"/>
</g>
<path d="M165.02 102.228H161.813V111.06H160.699V102.228H157.493V101.257H165.02V102.228ZM170.399 104.169H171.561L168.677 110.889L167.378 113.972H166.257L167.603 110.807L164.76 104.169H165.895L168.178 109.686L170.399 104.169ZM174.05 113.972H172.956V104.169H174.002V105.557C174.221 105.138 174.59 104.775 175.109 104.47C175.633 104.16 176.226 104.005 176.887 104.005C177.575 104.005 178.19 104.174 178.732 104.511C179.279 104.848 179.696 105.29 179.983 105.837C180.27 106.384 180.414 106.977 180.414 107.615C180.414 108.253 180.27 108.845 179.983 109.392C179.696 109.939 179.279 110.383 178.732 110.725C178.19 111.062 177.575 111.231 176.887 111.231C176.217 111.231 175.627 111.078 175.116 110.773C174.61 110.463 174.255 110.092 174.05 109.659V113.972ZM178.603 109.549C179.086 109.021 179.327 108.376 179.327 107.615C179.327 106.854 179.086 106.211 178.603 105.687C178.124 105.163 177.493 104.901 176.709 104.901C176.372 104.901 176.046 104.962 175.731 105.085C175.417 105.208 175.132 105.382 174.877 105.605C174.626 105.828 174.426 106.115 174.275 106.466C174.125 106.813 174.05 107.195 174.05 107.615C174.05 108.171 174.18 108.661 174.439 109.084C174.699 109.504 175.027 109.818 175.424 110.028C175.825 110.233 176.253 110.335 176.709 110.335C177.493 110.335 178.124 110.073 178.603 109.549ZM182.759 108.066C182.845 108.79 183.112 109.36 183.559 109.775C184.01 110.185 184.598 110.39 185.322 110.39C185.842 110.39 186.302 110.281 186.703 110.062C187.109 109.843 187.419 109.561 187.633 109.214H188.665C188.387 109.802 187.95 110.285 187.353 110.664C186.76 111.042 186.088 111.231 185.336 111.231C184.598 111.231 183.946 111.067 183.381 110.739C182.82 110.406 182.396 109.969 182.109 109.426C181.822 108.884 181.679 108.28 181.679 107.615C181.679 106.945 181.829 106.336 182.13 105.789C182.435 105.243 182.864 104.81 183.415 104.491C183.966 104.167 184.586 104.005 185.274 104.005C185.985 104.005 186.612 104.165 187.154 104.484C187.697 104.798 188.109 105.222 188.392 105.755C188.679 106.289 188.822 106.886 188.822 107.546V108.066H182.759ZM185.295 104.819C184.602 104.819 184.023 105.04 183.559 105.482C183.094 105.919 182.823 106.5 182.745 107.225H187.797C187.742 106.514 187.492 105.935 187.045 105.489C186.603 105.042 186.02 104.819 185.295 104.819ZM190.996 109.098C191.074 109.522 191.258 109.848 191.55 110.076C191.846 110.303 192.231 110.417 192.705 110.417C193.161 110.417 193.537 110.306 193.833 110.082C194.129 109.859 194.277 109.565 194.277 109.201C194.277 108.914 194.188 108.683 194.011 108.51C193.838 108.337 193.575 108.193 193.225 108.08L192.103 107.758C190.928 107.448 190.34 106.826 190.34 105.892C190.34 105.331 190.554 104.878 190.982 104.532C191.411 104.181 191.958 104.005 192.623 104.005C193.293 104.005 193.822 104.178 194.209 104.525C194.601 104.871 194.838 105.341 194.92 105.933H193.97C193.933 105.609 193.801 105.343 193.573 105.133C193.345 104.924 193.029 104.819 192.623 104.819C192.227 104.819 191.914 104.912 191.686 105.099C191.463 105.281 191.352 105.537 191.352 105.865C191.352 106.156 191.431 106.371 191.591 106.507C191.75 106.644 192.019 106.772 192.397 106.89L193.642 107.252C194.188 107.416 194.599 107.649 194.872 107.95C195.145 108.25 195.282 108.642 195.282 109.125C195.282 109.745 195.025 110.251 194.51 110.643C193.999 111.035 193.393 111.231 192.691 111.231C191.98 111.231 191.383 111.051 190.9 110.691C190.422 110.331 190.132 109.8 190.032 109.098H190.996ZM200.143 104.005C200.986 104.005 201.715 104.229 202.33 104.675C202.945 105.117 203.369 105.687 203.602 106.384H202.535C202.33 105.938 202.025 105.582 201.619 105.318C201.214 105.049 200.717 104.914 200.129 104.914C199.6 104.914 199.135 105.044 198.734 105.304C198.333 105.559 198.033 105.89 197.832 106.295C197.636 106.701 197.538 107.141 197.538 107.615C197.538 108.093 197.636 108.535 197.832 108.941C198.033 109.346 198.333 109.677 198.734 109.932C199.135 110.187 199.6 110.315 200.129 110.315C201.277 110.315 202.079 109.825 202.535 108.845H203.602C203.369 109.542 202.945 110.114 202.33 110.561C201.715 111.008 200.986 111.231 200.143 111.231C199.413 111.231 198.766 111.067 198.201 110.739C197.636 110.411 197.203 109.973 196.902 109.426C196.606 108.879 196.458 108.275 196.458 107.615C196.458 106.954 196.606 106.352 196.902 105.81C197.203 105.263 197.636 104.826 198.201 104.497C198.766 104.169 199.413 104.005 200.143 104.005ZM209.125 105.113H208.831C208.079 105.113 207.484 105.352 207.047 105.831C206.614 106.309 206.397 106.956 206.397 107.772V111.06H205.304V104.169H206.35V105.851C206.509 105.249 206.833 104.803 207.32 104.511C207.812 104.22 208.414 104.074 209.125 104.074V105.113ZM210.526 111.06V104.169H211.62V111.06H210.526ZM210.554 102.31C210.422 102.173 210.355 102.005 210.355 101.804C210.355 101.604 210.422 101.437 210.554 101.305C210.69 101.173 210.864 101.107 211.073 101.107C211.283 101.107 211.454 101.173 211.586 101.305C211.718 101.437 211.784 101.604 211.784 101.804C211.784 102.005 211.718 102.173 211.586 102.31C211.454 102.442 211.283 102.508 211.073 102.508C210.864 102.508 210.69 102.442 210.554 102.31ZM214.997 113.972H213.903V104.169H214.949V105.557C215.168 105.138 215.537 104.775 216.057 104.47C216.581 104.16 217.173 104.005 217.834 104.005C218.522 104.005 219.137 104.174 219.68 104.511C220.227 104.848 220.644 105.29 220.931 105.837C221.218 106.384 221.361 106.977 221.361 107.615C221.361 108.253 221.218 108.845 220.931 109.392C220.644 109.939 220.227 110.383 219.68 110.725C219.137 111.062 218.522 111.231 217.834 111.231C217.164 111.231 216.574 111.078 216.063 110.773C215.558 110.463 215.202 110.092 214.997 109.659V113.972ZM219.55 109.549C220.033 109.021 220.274 108.376 220.274 107.615C220.274 106.854 220.033 106.211 219.55 105.687C219.071 105.163 218.44 104.901 217.656 104.901C217.319 104.901 216.993 104.962 216.679 105.085C216.364 105.208 216.079 105.382 215.824 105.605C215.574 105.828 215.373 106.115 215.223 106.466C215.072 106.813 214.997 107.195 214.997 107.615C214.997 108.171 215.127 108.661 215.387 109.084C215.646 109.504 215.975 109.818 216.371 110.028C216.772 110.233 217.2 110.335 217.656 110.335C218.44 110.335 219.071 110.073 219.55 109.549ZM223.651 101.989H224.745V104.169H226.83V105.085H224.745V108.934C224.745 109.417 224.832 109.766 225.005 109.98C225.183 110.194 225.488 110.301 225.921 110.301C226.149 110.301 226.422 110.26 226.741 110.178V111.06C226.491 111.174 226.137 111.231 225.682 111.231C225.285 111.231 224.952 111.174 224.684 111.06C224.415 110.942 224.205 110.764 224.055 110.527C223.909 110.29 223.804 110.016 223.74 109.706C223.681 109.397 223.651 109.023 223.651 108.585V105.085H222.236V104.169H223.651V101.989Z" fill="#232323"/>
<circle cx="244" cy="162" r="51" fill="url(#paint2_radial_4_42)"/>
</g>
</g>
<path d="M10 162.06V12.06H6V162.06H10Z" fill="#FF2D20" mask="url(#path-1-inside-1_4_42)"/>
</g>
<defs>
<filter id="filter0_d_4_42" x="0" y="0.0599976" width="268.015" height="182" filterUnits="userSpaceOnUse" color-interpolation-filters="sRGB">
<feFlood flood-opacity="0" result="BackgroundImageFix"/>
<feColorMatrix in="SourceAlpha" type="matrix" values="0 0 0 0 0 0 0 0 0 0 0 0 0 0 0 0 0 0 127 0" result="hardAlpha"/>
<feOffset dx="8" dy="4"/>
<feGaussianBlur stdDeviation="8"/>
<feComposite in2="hardAlpha" operator="out"/>
<feColorMatrix type="matrix" values="0 0 0 0 0 0 0 0 0 0 0 0 0 0 0 0 0 0 0.1 0"/>
<feBlend mode="normal" in2="BackgroundImageFix" result="effect1_dropShadow_4_42"/>
<feBlend mode="normal" in="SourceGraphic" in2="effect1_dropShadow_4_42" result="shape"/>
</filter>
<filter id="filter1_d_4_42" x="16.5252" y="90.2214" width="39.351" height="41.6735" filterUnits="userSpaceOnUse" color-interpolation-filters="sRGB">
<feFlood flood-opacity="0" result="BackgroundImageFix"/>
<feColorMatrix in="SourceAlpha" type="matrix" values="0 0 0 0 0 0 0 0 0 0 0 0 0 0 0 0 0 0 127 0" result="hardAlpha"/>
<feOffset dy="4"/>
<feGaussianBlur stdDeviation="8"/>
<feColorMatrix type="matrix" values="0 0 0 0 0 0 0 0 0 0 0 0 0 0 0 0 0 0 0.15 0"/>
<feBlend mode="normal" in2="BackgroundImageFix" result="effect1_dropShadow_4_42"/>
<feBlend mode="normal" in="SourceGraphic" in2="effect1_dropShadow_4_42" result="shape"/>
</filter>
<linearGradient id="paint0_linear_4_42" x1="28.1006" y1="98.5364" x2="47.8212" y2="114.129" gradientUnits="userSpaceOnUse">
<stop stop-color="#9013FE"/>
<stop offset="1" stop-color="#6610F2"/>
</linearGradient>
<linearGradient id="paint1_linear_4_42" x1="33.261" y1="102.901" x2="37.6814" y2="110.348" gradientUnits="userSpaceOnUse">
<stop stop-color="white"/>
<stop offset="1" stop-color="#F1E5FC"/>
</linearGradient>
<radialGradient id="paint2_radial_4_42" cx="0" cy="0" r="1" gradientUnits="userSpaceOnUse" gradientTransform="translate(244 162) rotate(90) scale(51)">
<stop stop-color="#FF2D20" stop-opacity="0.2"/>
<stop offset="1" stop-color="#D9D9D9" stop-opacity="0"/>
</radialGradient>
<clipPath id="clip0_4_42">
<path d="M8 12.06H244.015V162.06H8V12.06Z" fill="white"/>
</clipPath>
<clipPath id="clip1_4_42">
<rect width="236.015" height="150" fill="white" transform="translate(8 12.06)"/>
</clipPath>
<clipPath id="clip2_4_42">
<rect width="89.7255" height="26" fill="white" transform="translate(24 24.06)"/>
</clipPath>
<clipPath id="clip3_4_42">
<rect width="22.5" height="18" fill="white" transform="translate(24.7573 98.06)"/>
</clipPath>
<clipPath id="clip4_4_42">
<rect width="24.0146" height="18" fill="white" transform="translate(24 128.06)"/>
</clipPath>
<clipPath id="clip5_4_42">
<rect width="18" height="18" fill="white" transform="translate(135.015 98.06)"/>
</clipPath>
</defs>
</svg>
